<?xml version="1.0" encoding="UTF-8"?>
<svg width="160" height="160" viewBox="0 0 160 160" fill="none" xmlns="http://www.w3.org/2000/svg">
  <circle cx="80" cy="80" r="75" fill="#F47920" stroke="#F47920" stroke-width="10"/>
  <path d="M80 25C49.62 25 25 49.62 25 80C25 110.38 49.62 135 80 135C110.38 135 135 110.38 135 80C135 49.62 110.38 25 80 25ZM80 120C57.94 120 40 102.06 40 80C40 57.94 57.94 40 80 40C102.06 40 120 57.94 120 80C120 102.06 102.06 120 80 120Z" fill="white"/>
  <path d="M95 60L65 100" stroke="white" stroke-width="10" stroke-linecap="round"/>
  <path d="M65 60L95 100" stroke="white" stroke-width="10" stroke-linecap="round"/>
</svg>